<svg width="501" height="238" viewBox="0 0 501 238" fill="none" xmlns="http://www.w3.org/2000/svg">
<path d="M250.422 208.168L143.32 22.7029C139.853 16.6983 133.446 13 126.512 13C119.578 13 113.17 16.6975 109.703 22.7029L2.60172 208.168C-0.866985 214.172 -0.866985 221.572 2.60019 227.578C6.06736 233.583 12.475 237.283 19.4101 237.283H233.613C240.547 237.283 246.956 233.584 250.423 227.578C253.89 221.572 253.89 214.172 250.422 208.168ZM19.4101 217.873L126.512 32.4088L233.613 217.873H19.4101Z" fill="black"/>
<path d="M121.564 100.307C114.576 101.697 110.038 108.486 111.427 115.474C112.816 122.461 119.606 126.998 126.595 125.609C133.58 124.219 138.119 117.43 136.731 110.442C135.342 103.456 128.55 98.9185 121.564 100.307Z" fill="black"/>
<path d="M117.936 126.121C117.821 126.031 117.701 125.952 117.582 125.872C116.271 124.836 114.717 124.069 112.972 123.699C111.262 123.334 109.564 123.393 107.974 123.784L90.2492 127.034C89.7264 127.13 89.2189 127.295 88.7406 127.528L75.8177 133.798C72.8918 135.218 71.6703 138.741 73.0907 141.667C74.1087 143.765 76.2078 144.986 78.3928 144.986C79.2557 144.986 80.1317 144.796 80.9594 144.394L93.1621 138.474L98.577 137.48L94.4127 157.077C94.329 157.47 94.2692 157.863 94.2285 158.254L86.683 177.664L70.7859 190.996C67.8193 193.483 67.4316 197.906 69.9199 200.872C71.3064 202.525 73.2934 203.377 75.2949 203.377C76.8842 203.377 78.4826 202.84 79.7962 201.738L97.0707 187.251C97.9743 186.493 98.6722 185.519 99.0999 184.419L104.48 170.578C104.598 170.588 104.714 170.591 104.832 170.596L115.394 179.843L118.41 199.635C118.938 203.105 121.926 205.591 125.332 205.59C125.683 205.59 126.039 205.564 126.397 205.51C130.224 204.927 132.854 201.351 132.271 197.524L128.869 175.199C128.619 173.563 127.8 172.069 126.555 170.98L116.289 161.995C116.309 161.91 116.336 161.827 116.354 161.741L120.348 142.95L125.666 147.103C126.223 147.538 126.855 147.87 127.53 148.081L142.675 152.826C143.261 153.01 143.855 153.097 144.437 153.097C146.942 153.097 149.266 151.484 150.055 148.967C151.027 145.864 149.299 142.559 146.196 141.587L132.072 137.162L117.936 126.121Z" fill="black"/>
<path d="M177.36 154.237C181.603 153.392 184.362 149.266 183.519 145.021C182.673 140.775 178.547 138.017 174.302 138.861C170.056 139.705 167.296 143.832 168.142 148.077C168.986 152.323 173.111 155.08 177.36 154.237Z" fill="black"/>
<path d="M144.846 163.995C145.464 165.269 146.74 166.012 148.068 166.012C148.592 166.012 149.124 165.897 149.627 165.652L157.041 162.054L160.332 161.45L157.801 173.359C157.75 173.599 157.713 173.838 157.689 174.078L153.104 185.87L143.443 193.972C141.64 195.483 141.405 198.171 142.916 199.973C143.759 200.978 144.966 201.496 146.183 201.496C147.149 201.496 148.12 201.169 148.919 200.5L159.418 191.696C159.967 191.235 160.391 190.644 160.651 189.975L163.92 181.564C163.991 181.57 164.062 181.573 164.133 181.576L170.552 187.193L172.384 199.221C172.705 201.329 174.521 202.84 176.591 202.84C176.804 202.84 177.02 202.824 177.237 202.791C179.563 202.437 181.161 200.264 180.807 197.938L178.741 184.372C178.59 183.378 178.092 182.469 177.335 181.807L171.097 176.347C171.109 176.296 171.126 176.245 171.137 176.194L173.564 164.774L176.796 167.298C177.135 167.563 177.519 167.764 177.929 167.892L187.132 170.776C187.488 170.887 187.848 170.941 188.203 170.941C189.725 170.941 191.137 169.961 191.616 168.431C192.208 166.545 191.157 164.538 189.272 163.946L180.689 161.257L172.098 154.548C172.066 154.523 172.03 154.508 171.998 154.485C171.18 153.809 170.193 153.312 169.083 153.076C168.042 152.853 167.008 152.889 166.04 153.128L155.274 155.102C154.956 155.16 154.648 155.262 154.357 155.403L146.505 159.213C144.725 160.076 143.983 162.217 144.846 163.995Z" fill="black"/>
<path fill-rule="evenodd" clip-rule="evenodd" d="M356.606 143.181C355.503 140.936 353.01 139.723 350.58 140.316C324.46 146.688 298 159.68 298 179.224V212.667H346.333V164.333C346.333 161.664 348.497 159.5 351.167 159.5C353.836 159.5 356 161.664 356 164.333V212.667H414V164.333C414 161.664 416.164 159.5 418.833 159.5C421.503 159.5 423.667 161.664 423.667 164.333V212.667H472V179.224C472 159.68 445.54 146.688 419.42 140.316C416.99 139.723 414.497 140.936 413.394 143.181L393.751 144.496L376.248 144.495L356.606 143.181Z" fill="black"/>
<path fill-rule="evenodd" clip-rule="evenodd" d="M389.833 23.7513C394.992 24.4152 399.879 26.107 404.333 28.4935V43.498C404.333 46.1674 406.497 48.3313 409.167 48.3313C411.836 48.3313 414 46.1674 414 43.498V35.2869C419.961 40.6106 424.443 47.0733 426.752 53.245C426.84 55.5118 426.594 57.854 426.15 60.1325C425.586 63.0247 424.736 65.6255 424.022 67.5096C423.666 68.4482 423.348 69.2003 423.121 69.7112C423.007 69.9664 422.917 70.1611 422.858 70.2883L422.791 70.4275L422.774 70.4618C422.123 71.7764 422.66 73.37 423.975 74.0225C425.29 74.6755 426.885 74.1385 427.538 72.8233L425.193 71.6595C427.538 72.8233 427.539 72.8204 427.54 72.82L427.542 72.8142L427.55 72.7977L427.576 72.7441L427.667 72.5546C427.743 72.3932 427.85 72.1617 427.981 71.8673C428.242 71.2786 428.599 70.4357 428.993 69.3946C429.78 67.3187 430.732 64.4191 431.369 61.1494C431.479 60.5839 431.581 60.001 431.671 59.4036C435.812 64.8184 438.167 70.4294 438.167 75.2777C438.167 90.6931 414.363 92.5569 385 92.5569C355.637 92.5569 331.833 90.6931 331.833 75.2777C331.833 70.7339 333.901 65.5207 337.57 60.4263C337.412 64.7613 338.276 69.3269 341.195 73.3492C342.066 74.5498 343.727 74.833 344.905 73.9824C346.082 73.1312 346.33 71.4681 345.459 70.2675C341.992 65.4902 342.44 59.1305 344.187 53.3672C345.037 50.5615 346.143 48.0806 347.042 46.2949C347.49 45.4054 347.882 44.6969 348.158 44.2166C348.297 43.9766 348.406 43.7942 348.478 43.6752L348.558 43.5451L348.578 43.513C348.601 43.4775 348.622 43.4417 348.643 43.4055C350.72 40.5465 353.196 37.7907 356 35.2869V43.498C356 46.1674 358.164 48.3313 360.833 48.3313C363.503 48.3313 365.667 46.1674 365.667 43.498V28.4934C370.121 26.107 375.008 24.4152 380.167 23.7513V33.8313C380.167 36.5007 382.331 38.6646 385 38.6646C387.669 38.6646 389.833 36.5007 389.833 33.8313V23.7513Z" fill="black"/>
<path fill-rule="evenodd" clip-rule="evenodd" d="M351.167 87C351.167 105.686 366.314 120.833 385 120.833C403.686 120.833 418.833 105.686 418.833 87H428.5C428.5 111.025 409.025 130.5 385 130.5C360.975 130.5 341.5 111.025 341.5 87H351.167Z" fill="black"/>
</svg>
